<?xml version="1.0" standalone="no"?>
<!DOCTYPE svg PUBLIC "-//W3C//DTD SVG 20010904//EN"
 "http://www.w3.org/TR/2001/REC-SVG-20010904/DTD/svg10.dtd">
<svg version="1.0" xmlns="http://www.w3.org/2000/svg"
 width="443.000000pt" height="117.000000pt" viewBox="0 0 443.000000 117.000000"
 preserveAspectRatio="xMidYMid meet">

<g transform="translate(0.000000,117.000000) scale(0.100000,-0.100000)"
fill="#000000" stroke="none">
<path d="M670 1058 c-41 -5 -184 -10 -317 -11 -134 -1 -239 -3 -234 -5 5 -2
38 -7 72 -11 l64 -9 -89 0 c-75 1 -91 -2 -103 -18 -21 -29 -15 -62 18 -104 34
-43 72 -60 129 -60 21 0 58 -3 84 -6 l46 -7 -2 -261 c-3 -234 -1 -264 15 -293
34 -64 99 -52 115 20 l10 42 1 -40 c1 -30 4 -36 11 -25 6 9 10 132 10 297 l0
281 43 7 c158 24 197 41 197 84 0 10 7 24 15 31 17 14 20 46 4 55 -6 4 -8 13
-5 21 8 20 -1 21 -84 12z m-461 -184 c10 -9 -56 -3 -69 7 -11 7 -4 8 25 3 22
-4 42 -8 44 -10z"/>
<path d="M4260 1060 c-36 -4 -166 -12 -290 -16 -146 -6 -207 -11 -175 -15 43
-6 39 -6 -30 -7 -145 0 -185 -22 -185 -103 l0 -29 -46 35 c-58 45 -175 101
-239 115 -27 6 -88 13 -135 15 -74 4 -90 2 -125 -18 -66 -37 -85 -101 -34
-114 8 -3 7 0 -3 7 -10 6 -18 21 -18 33 0 21 1 21 23 -4 23 -28 101 -47 113
-28 3 6 20 -10 36 -33 17 -24 102 -113 187 -198 255 -253 281 -320 124 -320
-113 0 -159 57 -199 246 -29 139 -41 168 -72 172 -12 2 -22 9 -22 15 0 7 -4 6
-10 -3 -7 -11 -10 -6 -10 21 0 64 -47 86 -107 49 -55 -33 -58 -47 -57 -256 l0
-191 -115 -6 c-64 -2 -123 -8 -132 -12 -15 -6 -18 7 -23 102 -14 230 -37 445
-51 476 -8 18 -13 23 -11 12 3 -11 7 -47 10 -80 7 -75 -9 -43 -19 38 -7 55 -8
57 -45 68 -50 15 -88 5 -96 -24 -3 -13 2 -104 11 -202 9 -97 14 -179 12 -181
-2 -2 -19 7 -37 21 -31 23 -43 25 -139 25 -131 0 -178 -12 -194 -48 -11 -27
-11 -27 -14 13 -13 184 -51 306 -113 366 -33 32 -47 39 -80 39 -58 0 -104 -22
-129 -64 -13 -20 -27 -34 -31 -31 -20 12 -100 -198 -100 -262 0 -12 -4 -24 -8
-27 -4 -3 -39 31 -78 76 -38 44 -114 123 -168 175 -104 100 -174 143 -235 143
-42 0 -141 -55 -141 -78 -1 -15 -2 -15 -11 1 -5 9 -15 17 -21 17 -5 0 -19 11
-30 25 -40 51 -157 24 -193 -45 -18 -35 -29 -39 -21 -7 3 12 -14 -18 -39 -68
-60 -119 -78 -209 -72 -345 6 -124 31 -202 84 -261 78 -86 210 -77 292 19 l39
45 47 -19 c32 -13 55 -31 71 -56 13 -21 34 -40 47 -43 28 -7 64 -2 78 12 7 7
33 5 82 -4 109 -22 204 -13 279 26 61 31 61 31 82 12 28 -26 88 -51 124 -51
66 0 97 14 149 65 55 55 75 103 88 206 l7 54 181 -6 c173 -6 183 -6 200 13 20
24 17 44 26 -166 5 -124 9 -151 23 -160 12 -7 42 -5 110 8 113 23 364 34 381
17 19 -19 81 -13 95 9 18 29 36 24 55 -15 20 -43 50 -46 74 -7 9 15 17 28 18
29 0 1 25 -7 55 -17 150 -52 299 2 315 114 9 59 -16 135 -65 201 -21 28 -88
103 -149 167 -121 127 -120 136 9 67 77 -41 114 -83 134 -154 18 -58 47 -84
82 -71 14 5 15 16 9 72 -4 36 -4 97 0 134 l7 68 26 -8 c15 -5 65 -11 111 -14
46 -3 85 -7 87 -9 2 -1 -2 -102 -8 -222 -12 -253 -5 -320 39 -355 14 -11 31
-20 37 -20 24 0 48 27 56 60 l8 35 1 -34 c1 -27 4 -32 13 -23 9 9 11 85 9 295
l-3 283 100 18 c104 18 142 35 142 65 0 9 7 26 15 37 16 22 20 60 5 69 -5 3
-7 12 -3 20 3 8 1 14 -3 13 -5 0 -38 -4 -74 -8z m-1706 -52 c-4 -7 -7 -89 -7
-183 l1 -170 -14 169 c-10 124 -11 173 -3 183 14 16 33 17 23 1z m-1606 -141
c40 -105 53 -319 27 -422 -20 -78 -43 -109 -84 -113 -25 -3 -38 4 -64 30 l-32
33 28 3 c26 3 27 5 20 45 -5 23 -8 105 -7 182 0 118 4 149 22 199 20 54 47 94
64 95 4 1 15 -23 26 -52z m1008 16 c61 -143 53 -491 -13 -540 -30 -23 -72 -15
-106 19 l-32 33 29 3 c25 3 27 7 22 30 -15 65 -18 243 -7 303 16 82 50 171 62
164 5 -4 9 1 9 9 0 29 19 17 36 -21z m1843 -9 c10 -9 -66 -3 -79 6 -10 7 -1 8
30 4 25 -4 47 -8 49 -10z m-2596 -413 c-10 -13 -24 27 -51 144 -49 211 -45
234 6 40 27 -99 47 -182 45 -184z m131 325 c112 -72 259 -232 315 -344 13 -24
20 -50 17 -57 -7 -20 -98 -37 -153 -29 -26 3 -75 15 -109 25 l-60 19 -33 182
c-18 101 -35 195 -38 211 -3 15 -2 27 1 27 4 0 31 -15 60 -34z m1705 -138 c-1
-122 -2 -128 -11 -75 -9 51 -3 207 8 207 2 0 3 -60 3 -132z m-1883 -156 c-2
-1 -11 1 -20 4 -12 5 -16 13 -12 28 3 11 6 37 7 56 1 29 3 25 14 -25 7 -33 12
-61 11 -63z"/>
<path d="M866 791 c-16 -72 -20 -228 -8 -311 4 -26 7 24 7 120 0 106 5 181 13
209 7 23 11 45 9 48 -3 2 -12 -27 -21 -66z"/>
<path d="M1880 803 c-17 -64 -24 -224 -13 -293 7 -45 9 -28 9 90 0 80 6 167
13 194 6 27 10 50 8 53 -3 2 -10 -18 -17 -44z"/>
<path d="M3708 1043 c6 -2 18 -2 25 0 6 3 1 5 -13 5 -14 0 -19 -2 -12 -5z"/>
<path d="M1795 979 c-4 -6 -5 -12 -2 -15 2 -3 7 2 10 11 7 17 1 20 -8 4z"/>
<path d="M3043 913 c9 -2 23 -2 30 0 6 3 -1 5 -18 5 -16 0 -22 -2 -12 -5z"/>
<path d="M2735 228 c-44 -4 -91 -13 -105 -18 -22 -9 -21 -9 10 -5 19 2 113 8
208 11 94 4 172 11 172 16 0 10 -179 8 -285 -4z"/>
</g>
</svg>
